Coordinates
version=1
nRows=19
nColumns=36
inDegrees=yes

Units are S.I. units (second, meters, Newtons, ...)
If the header above contains a line with 'inDegrees', this indicates whether rotational values are in degrees (yes) or radians (no).

endheader
time	pelvis_tilt	pelvis_list	pelvis_rotation	pelvis_tx	pelvis_ty	pelvis_tz	hip_flexion_r	hip_adduction_r	hip_rotation_r	knee_angle_r	knee_angle_r_beta	ankle_angle_r	subtalar_angle_r	mtp_angle_r	hip_flexion_l	hip_adduction_l	hip_rotation_l	knee_angle_l	knee_angle_l_beta	ankle_angle_l	subtalar_angle_l	mtp_angle_l	lumbar_extension	lumbar_bending	lumbar_rotation	arm_flex_r	arm_add_r	arm_rot_r	elbow_flex_r	pro_sup_r	arm_flex_l	arm_add_l	arm_rot_l	elbow_flex_l	pro_sup_l
      2.33333330	     -0.49978212	     -2.51446705	     -5.18555574	      0.56378793	      0.90161387	     -0.11302911	     -3.60778454	     -3.39058427	    -14.08780152	      2.39033829	      0.04171927	     11.42353921	     -2.43978883	     -7.49999987	     -2.85546458	     -9.55251225	     -3.43960849	      0.48676548	      0.00849566	      5.85563834	     -1.64388723	     -7.49999987	     -0.03947638	      5.78945266	      1.04733577	     64.79807395	      6.66458495	     53.49135482	    123.88284401	     89.16800612	     62.08709874	     24.68572420	     64.25456662	    148.23908971	     63.47168430
      2.35000000	     -0.50324851	     -2.54577488	     -5.07077985	      0.56335816	      0.90147264	     -0.11333366	     -3.70479479	     -3.32748183	    -14.38351783	      2.21945715	      0.03873683	     11.49523449	     -2.13741210	     -7.49999987	     -2.82092537	     -9.59187795	     -3.16809434	      0.47223083	      0.00824198	      5.72301398	     -1.88991824	     -7.49999987	      0.07895417	      5.83836997	      0.87640479	     65.01658806	      6.65228972	     53.97756657	    123.71103332	     87.15889796	     62.28599053	     24.51057431	     64.00137358	    148.27411236	     63.31576294
      2.36666670	     -0.52845692	     -2.54574960	     -5.02291607	      0.56360881	      0.90153714	     -0.11316557	     -3.76151945	     -3.31048152	    -14.43433846	      2.07538936	      0.03622238	     11.46866790	     -2.07167768	     -7.49999987	     -2.76943147	     -9.58687386	     -3.19543955	      0.45693697	      0.00797505	      5.67198305	     -1.85195503	     -7.49999987	      0.19941211	      5.87822397	      0.86167653	     65.32448361	      6.58993138	     54.06697574	    123.49251910	     86.84366313	     62.42999369	     24.53039540	     63.89628591	    148.27271920	     63.23763131
      2.38333330	     -0.52142603	     -2.56274759	     -4.99116005	      0.56334187	      0.90142526	     -0.11330709	     -3.80566023	     -3.28136166	    -14.43225430	      1.99787802	      0.03486955	     11.50465024	     -1.95017973	     -7.49999987	     -2.75088527	     -9.61272903	     -3.18187963	      0.45504521	      0.00794204	      5.62479415	     -1.87426381	     -7.49999987	      0.23506449	      5.92885349	      0.82368991	     65.84716444	      6.74609909	     53.89327334	    123.23227902	     85.83610852	     62.80805095	     24.43776365	     63.48743500	    148.12950489	     63.16795332
      2.40000000	     -0.45727910	     -2.55053491	     -4.94850087	      0.56344724	      0.90156754	     -0.11307997	     -3.93679536	     -3.27680021	    -14.35167980	      1.85702768	      0.03241125	     11.41328993	     -2.09825919	     -7.49999987	     -2.79776310	     -9.59639208	     -3.24172568	      0.44294592	      0.00773086	      5.52595488	     -1.82878014	     -7.49999987	      0.20124202	      5.96902925	      0.71374098	     66.40091799	      7.16162948	     54.03583263	    123.12460373	     84.95957607	     62.97214256	     24.22586847	     63.14732548	    147.91046220	     63.10192221
      2.41666670	     -0.54424904	     -2.55562682	     -4.86751105	      0.56316215	      0.90129423	     -0.11329316	     -3.90019231	     -3.24740139	    -14.39353230	      1.70949179	      0.02983626	     11.38983418	     -1.98532061	     -7.49999987	     -2.63978014	     -9.61297701	     -3.11783643	      0.43918663	      0.00766525	      5.37421532	     -1.99650386	     -7.49999987	      0.36822973	      5.99905881	      0.59606921	     66.58561782	      7.16091488	     53.83567004	    122.84915984	     84.30367817	     62.83718968	     24.06212307	     63.02519699	    147.89231492	     63.05207773
      2.43333330	     -0.47683829	     -2.55910923	     -4.67663660	      0.56335018	      0.90154862	     -0.11333680	     -4.02863395	     -3.22234446	    -14.73278685	      1.61301464	      0.02815242	     11.52309180	     -1.58722219	     -7.49999987	     -2.60885214	     -9.62148956	     -2.78036590	      0.44115555	      0.00769962	      5.20338085	     -2.29428203	     -7.49999987	      0.33815193	      6.01215402	      0.25144399	     66.70327585	      7.51412600	     53.81785305	    122.77977503	     88.19490086	     62.90196630	     23.88962886	     62.88608951	    147.77440603	     62.67232564
      2.45000000	     -0.50873111	     -2.54088475	     -4.70385158	      0.56305272	      0.90136196	     -0.11340525	     -3.99996742	     -3.23375507	    -14.53788809	      1.53374237	      0.02676885	     11.48017954	     -1.71801239	     -7.49999987	     -2.51585271	     -9.60860783	     -3.02817104	      0.44573168	      0.00777949	      5.19701290	     -2.04984119	     -7.49999987	      0.34466570	      6.04696331	      0.52497137	     66.79017990	      7.37415872	     53.91798791	    123.26590771	     87.00092200	     62.73081073	     24.06120145	     62.95056035	    147.76411472	     62.61847423
      2.46666670	     -0.60426434	     -2.48784073	     -4.61943953	      0.56337976	      0.90142024	     -0.11326787	     -3.90949093	     -3.26755570	    -14.27512896	      1.49002715	      0.02600588	     11.37739108	     -2.27529506	     -7.49999987	     -2.32217308	     -9.55641654	     -2.84140598	      0.46417305	      0.00810135	      5.08142672	     -2.25727941	     -7.49999987	      0.48727090	      5.90612808	      0.47098022	     66.58229064	      7.69136898	     53.91538038	    124.02759578	     86.65845059	     62.63383929	     24.16680285	     62.93596244	    147.66520158	     62.64431790
      2.48333330	     -0.50420681	     -2.51285299	     -4.57823196	      0.56320277	      0.90142011	     -0.11342332	     -4.04934481	     -3.25100642	    -14.57846679	      1.40983779	      0.02460631	     11.44541761	     -1.84163941	     -7.49999987	     -2.36975950	     -9.57291226	     -2.95293886	      0.46270973	      0.00807581	      4.95916809	     -2.23245432	     -7.49999987	      0.39235343	      6.06109633	      0.35723093	     66.78588569	      8.23163531	     54.45366692	    123.65472848	     84.43998645	     62.45155849	     24.02187861	     62.74835091	    147.48979304	     62.48958285
      2.50000000	     -0.34464353	     -2.50157793	     -4.51465714	      0.56335659	      0.90158021	     -0.11327352	     -4.23829621	     -3.26963521	    -14.66991590	      1.36752788	      0.02386786	     11.50785016	     -1.74129737	     -7.49999987	     -2.48514807	     -9.53234484	     -2.96970432	      0.47094640	      0.00821957	      4.88083849	     -2.17386269	     -7.49999987	      0.12892901	      6.03883611	      0.50281870	     66.99937951	      8.49903505	     54.68637926	    123.80352211	     83.98817350	     62.64286430	     24.24465049	     62.78098262	    147.48252571	     62.36425523
      2.51666670	     -0.43473758	     -2.51333291	     -4.44357310	      0.55690532	      0.90101668	     -0.10993992	     -4.12658887	     -3.20876060	    -14.80056359	      1.32315769	      0.02309346	     11.52210194	     -1.73369928	     -7.49999987	     -2.26176881	     -9.57740156	     -2.91061451	      0.50927620	      0.00888855	      4.78117697	     -2.22179013	     -7.49999987	      0.09421233	      5.90026508	      0.96036740	     67.44861889	      8.88048237	     54.48244075	    123.67741822	     84.05335365	     62.70643894	     24.22241334	     62.64966587	    147.55284585	     62.32904092
      2.53333330	     -0.43380222	     -2.56247566	     -4.46663909	      0.55729950	      0.90119563	     -0.10974580	     -4.06687367	     -3.13101607	    -14.84194579	      1.35780973	      0.02369825	     11.58478825	     -1.66087908	     -7.49999987	     -2.15539464	     -9.64297424	     -2.90669189	      0.55957411	      0.00976641	      4.60406948	     -2.47043934	     -7.49999987	     -0.05257320	      5.89114812	      1.56850546	     67.79774316	      8.91396582	     54.04022107	    122.90206484	     84.20136475	     62.66177618	     24.61897566	     62.62132351	    147.74239279	     62.24393230
      2.55000000	     -0.41145736	     -2.61829197	     -4.50704489	      0.55730917	      0.90091629	     -0.10968298	     -4.03381175	     -3.03352100	    -14.87227106	      1.35423774	      0.02363591	     11.63326673	     -1.61116442	     -7.49999987	     -2.09751374	     -9.71382269	     -2.99341895	      0.60585504	      0.01057417	      4.46714338	     -2.60540384	     -7.49999987	     -0.12126610	      5.88138032	      2.10189324	     67.87808883	      8.73148081	     53.95916094	    122.36371484	     83.30256276	     62.40364396	     24.99807328	     62.62555831	    147.81938457	     62.17992385
      2.56666670	     -0.35116413	     -2.65008494	     -4.47241129	      0.55783302	      0.90117392	     -0.10947526	     -4.04008933	     -2.98382606	    -14.97082928	      1.39677712	      0.02437836	     11.60888218	     -1.63157690	     -7.49999987	     -2.04101390	     -9.75231923	     -2.77860214	      0.67573072	      0.01179373	      4.22521392	     -3.01728877	     -7.49999987	     -0.33985525	      5.88723425	      2.43836279	     68.00632829	      8.72966718	     53.77180096	    122.21164998	     88.11762590	     62.46230184	     25.36974617	     62.69507162	    147.88267114	     59.57758563
      2.58333330	     -0.38700953	     -2.72953224	     -4.51046755	      0.55151690	      0.90073088	     -0.10598173	     -3.87061013	     -2.85597251	    -15.00216385	      1.49084103	      0.02602008	     11.62395091	     -1.65927577	     -7.49999987	     -1.82759336	     -9.89131738	     -2.82244898	      0.79923621	      0.01394930	      4.14867780	     -3.06134202	     -7.49999987	     -0.55884169	      5.84486408	      2.90353169	     68.32308647	      8.75781733	     53.77049068	    122.27851631	     88.11869324	     62.65364663	     25.49980970	     62.69778159	    148.12274063	     59.56797915
      2.60000000	     -0.33665837	     -2.80227106	     -4.57027027	      0.55208599	      0.90431583	     -0.10523572	     -3.80123526	     -2.74845647	    -14.91109922	      1.59082448	      0.02776512	     11.56589311	     -1.71896720	     -7.49999987	     -1.71098812	    -10.01549449	     -2.86308296	      0.91827591	      0.01602694	      3.96425359	     -3.20787377	     -7.49999987	     -0.95313432	      5.76586255	      3.44563914	     68.43945344	      8.68955691	     53.51486551	    122.09874260	     88.50110511	     62.78899530	     26.08446491	     63.48623549	    148.28472404	     58.94177493
      2.61666670	     -0.29619117	     -2.88664462	     -4.63368546	      0.55235192	      0.90417991	     -0.10539377	     -3.70167716	     -2.62073727	    -15.04185693	      1.68171581	      0.02935148	     11.54717164	     -1.61825629	     -7.49999987	     -1.58772926	    -10.14008005	     -2.82459825	      1.05078843	      0.01833972	      3.82650726	     -3.37575764	     -7.49999987	     -1.10982555	      5.73947161	      3.69657799	     69.03019795	      8.91904930	     53.66700192	    122.01495043	     83.58198872	     62.68090974	     26.42802252	     63.56239846	    148.36482439	     59.44853345
      2.63333330	     -0.30955322	     -2.96175102	     -4.71247614	      0.55284142	      0.90087274	     -0.10544485	     -3.52414384	     -2.51000338	    -15.02202815	      1.82604752	      0.03187054	     11.49468383	     -1.72836739	     -7.49999987	     -1.41428756	    -10.26984913	     -2.81782162	      1.21585030	      0.02122059	      3.68502293	     -3.47279844	     -7.49999987	     -1.17599398	      5.76130989	      4.02572617	     69.51506741	      8.77123229	     52.77695194	    121.97219220	     88.27132765	     63.19462455	     26.94749316	     63.19137740	    148.37824735	     57.95231534
